<?xml version="1.0" encoding="UTF-8" standalone="no"?>
<svg xmlns="http://www.w3.org/2000/svg" version="1.0" width="512px" height="512px" viewBox="0 0 512 512" preserveAspectRatio="xMidYMid meet">
  <g transform="translate(0.000000,512.000000) scale(0.100000,-0.100000)" fill="#000000" stroke="none">
    <path d="M2350 5114 c-328 -38 -552 -95 -810 -206 -585 -251 -1078 -743 -1328 -1328 -132 -309 -197 -595 -209 -930 -31 -885 386 -1708 1122 -2209 320 -218 667 -353 1079 -418 156 -24 556 -24 712 0 576 91 1059 333 1454 727 394 395 636 878 727 1454 24 156 24 556 0 712 -119 754 -506 1364 -1127 1781 -300 201 -653 336 -1045 398 -95 16 -494 29 -575 19z m569 -110 c535 -79 1002 -314 1387 -698 386 -387 615 -842 701 -1396 25 -161 25 -539 0 -700 -86 -554 -315 -1009 -701 -1396 -384 -383 -847 -617 -1386 -699 -217 -33 -548 -30 -758 6 -58 10 -63 14 -60 33 9 47 664 1706 673 1706 6 0 35 -25 65 -56 191 -193 476 -314 745 -314 155 0 356 52 495 127 221 120 402 322 490 550 17 43 35 87 40 98 5 11 10 36 12 55 l3 35 -542 3 -543 2 0 -45 0 -45 491 0 492 0 -7 -32 c-3 -18 -22 -66 -41 -106 -125 -265 -367 -463 -651 -534 -127 -32 -351 -32 -478 0 -323 81 -585 322 -693 637 -125 366 -25 781 251 1042 178 169 386 257 636 270 104 5 253 -10 311 -32 8 -3 23 9 36 29 l22 34 -57 15 c-143 39 -281 46 -428 22 -466 -75 -824 -445 -894 -923 l-12 -82 -709 0 c-631 0 -709 2 -709 15 0 17 966 2345 978 2356 38 37 639 53 841 23z m-959 -65 c0 -6 -210 -516 -466 -1133 -474 -1139 -514 -1237 -514 -1268 0 -17 43 -18 769 -18 l769 0 6 -58 c18 -148 73 -317 141 -433 19 -33 35 -70 35 -82 0 -37 -636 -1652 -652 -1655 -11 -2 -108 251 -372 970 -196 534 -358 974 -361 976 -6 6 -75 -18 -75 -27 0 -4 166 -460 370 -1014 204 -554 370 -1015 370 -1023 0 -19 -25 -15 -173 33 -384 123 -703 318 -993 607 -386 387 -615 842 -701 1396 -25 161 -25 539 0 700 86 554 315 1009 701 1396 289 288 593 475 986 605 119 40 160 47 160 28z" shape-rendering="optimizeQuality"></path>
  </g>
</svg>
